<svg width="231" height="80" viewBox="0 0 231 80" fill="none" xmlns="http://www.w3.org/2000/svg">
<path d="M0.438312 62V3.23377H22.9221C35.6656 3.23377 41.9562 9.72727 41.9968 18.4935C41.9562 25.6364 37.4513 29.6136 31.6883 30.9935V31.5617C37.9383 31.8864 44.2695 37.0812 44.2695 46.0097C44.2695 55.1412 37.6542 62 24.2208 62H0.438312ZM10.9903 53.1526H22.5974C30.3084 53.1526 33.5146 49.8653 33.5552 45.1981C33.5146 39.9221 29.4156 35.9042 22.8409 35.8636H10.9903V53.1526ZM10.9903 28.2338H21.6234C27.1834 28.2338 31.4042 25.0276 31.4448 19.7922C31.4042 15.2873 28.1575 12 21.8669 12H10.9903V28.2338ZM52.3864 62V17.9253H62.776V62H52.3864ZM51.6558 5.99351C51.6558 2.90909 54.375 0.392858 57.6623 0.392858C60.9497 0.392858 63.6688 2.90909 63.6688 5.99351C63.6688 9.11851 60.9497 11.6347 57.6623 11.6753C54.375 11.6347 51.6558 9.11851 51.6558 5.99351ZM83.0682 36.1883V62H72.6786V17.9253H82.5812V25.3929H83.1493C85.138 20.4821 89.6429 17.3571 96.2175 17.3571C105.349 17.3571 111.356 23.3636 111.315 33.9156V62H101.006V35.539C101.006 29.6136 97.8003 26.0828 92.4026 26.1234C86.9237 26.0828 83.0682 29.776 83.0682 36.1883ZM140.455 79.4513C128.766 79.4513 121.339 74.2565 120.649 65.9773H130.958C131.688 69.8328 135.3 71.6185 140.617 71.6591C146.826 71.6185 150.844 68.9399 150.844 62.487V54.0455H150.357C148.734 57.2922 145.203 61.3506 137.614 61.3506C127.427 61.3506 119.432 53.9643 119.432 39.5974C119.432 25.1088 127.468 17.3571 137.695 17.3571C145.446 17.3571 148.734 22.0244 150.357 25.1494H150.844V17.9253H161.071V62.7305C161.071 74.013 152.346 79.4513 140.455 79.4513ZM129.984 39.7597C129.984 47.8766 133.636 53.2338 140.455 53.2338C147.151 53.2338 150.925 48.2013 150.925 39.7597C150.925 31.3588 147.192 25.8393 140.455 25.7987C133.555 25.8393 129.984 31.724 129.984 39.7597ZM181.364 3.23377V62H170.974V3.23377H181.364ZM210.828 62.8929C197.557 62.8929 189.399 54.0455 189.399 40.2468C189.399 26.6104 197.679 17.3571 210.26 17.3571C221.055 17.3571 230.39 24.1347 230.39 39.5974V42.8442H199.627C199.789 50.3523 204.213 54.8166 210.909 54.776C215.455 54.8166 218.498 52.8685 219.838 50.2305H229.984C228.117 57.8604 221.055 62.8929 210.828 62.8929ZM199.667 35.7825H220.487C220.446 29.776 216.388 25.3929 210.422 25.3929C204.213 25.3929 200.032 30.1818 199.667 35.7825Z" fill="#FE7210"/>
</svg>
